<?xml version="1.0"?><svg width="640" height="480" xmlns="http://www.w3.org/2000/svg">
 <title>noose</title>
 <metadata id="metadata7">image/svg+xml</metadata>
 <g>
  <title>Layer 1</title>
  <path id="path2467" d="m175.629211,477.096466c-0.65451,-0.654541 -4.681198,-1.573944 -8.948227,-2.042969c-4.267014,-0.469055 -10.037537,-1.276154 -12.823318,-1.793427c-2.785767,-0.517242 -7.667007,-1.351471 -10.847244,-1.85379c-3.180222,-0.50238 -7.806381,-2.814941 -10.28035,-5.139221c-2.47403,-2.324158 -4.996033,-3.728058 -5.604584,-3.119507c-0.608452,0.60849 -5.300301,-3.257935 -10.426369,-8.592072c-5.126015,-5.334137 -11.626244,-12.100586 -14.444984,-15.036591c-2.81871,-2.936035 -5.125015,-7.155243 -5.125015,-9.37616c0,-2.220917 -1.310043,-7.173431 -2.911293,-11.005707c-3.33567,-7.983521 -3.724464,-27.835052 -0.738861,-37.728699c2.464714,-8.167511 1.406738,-9.566833 -4.786873,-6.330841c-4.399895,2.298828 -4.356987,2.118652 0.610664,-2.566132c2.938515,-2.771057 5.974022,-7.912506 6.74559,-11.425232c0.771507,-3.512756 2.314453,-6.386841 3.42878,-6.386841c1.174835,0 1.534973,-2.766357 0.857155,-6.584564c-0.751778,-4.235107 -0.584038,-5.219727 0.4701,-2.759613c1.353561,3.159027 2.284103,2.100769 5.344643,-6.078064c2.038063,-5.446686 4.44268,-10.85202 5.343452,-12.011932c0.900795,-1.159851 2.646469,-6.630157 3.879349,-12.156128c1.447792,-6.489166 4.533745,-12.418823 8.714081,-16.744263c3.559944,-3.683441 6.023468,-6.874451 5.474625,-7.091095c-1.470932,-0.580688 4.438278,-17.615143 6.110626,-17.615143c0.783813,0 1.283569,-2.051361 1.110657,-4.558502c-0.173004,-2.507263 0.967987,-6.609955 2.535614,-9.117126c1.567581,-2.507202 2.148163,-4.558548 1.290115,-4.558548c-0.858017,0 0.023743,-1.750061 1.959412,-3.888901c1.935638,-2.138947 3.244781,-6.013657 2.909042,-8.610611c-0.335678,-2.596954 -0.068832,-5.633377 0.593109,-6.74765c0.661942,-1.114349 0.469955,-3.849503 -0.42662,-6.078064c-0.901779,-2.241684 -1.693695,-2.788376 -1.772522,-1.22374c-0.089142,1.771729 -2.078583,0.739182 -5.324966,-2.763763c-4.600723,-4.964188 -4.934784,-6.303101 -2.975296,-11.924194c1.214066,-3.482574 1.434616,-6.589615 0.490112,-6.904465c-0.944412,-0.314819 -1.324936,-3.971222 -0.845459,-8.125351c1.290756,-11.183426 1.239059,-15.01091 -0.293655,-21.734985c-0.919052,-4.031921 -0.80751,-4.750473 0.331329,-2.134552c1.606308,3.689865 1.799515,3.626968 3.003754,-0.978073c0.71138,-2.720291 0.277588,-5.84343 -0.969818,-6.982544c-1.534729,-1.401535 -1.885269,-1.389557 -1.095428,0.037399c0.638809,1.154114 -0.656204,2.098358 -2.87793,2.098358c-3.165878,0 -3.457962,-0.453766 -1.350525,-2.098358c6.865829,-5.358002 7.849182,-30.724915 1.013138,-26.135391c-1.434265,0.962921 -0.969299,0.237091 1.033279,-1.613022c2.002609,-1.850052 3.641022,-4.411102 3.641022,-5.691132c0,-1.280029 0.911728,-1.763855 2.026001,-1.075134c2.98822,1.846802 2.462738,-1.514038 -1.012558,-6.4757c-2.93541,-4.190903 -2.292892,-10.745483 1.053391,-10.745483c0.898315,0 0.625122,-2.670883 -0.607056,-5.935287c-1.713852,-4.540421 -1.609039,-7.278107 0.446045,-11.649612c1.477463,-3.142921 2.926743,-9.610474 3.220566,-14.372391c0.627502,-10.167999 3.979385,-15.018684 9.818939,-14.20945c8.156143,1.130241 16.53389,-44.551241 9.041443,-49.300213c-2.25737,-1.430851 -2.251389,-1.725153 0.035736,-1.751005c1.647736,-0.018538 2.265869,-1.290798 1.542725,-3.175237c-0.69191,-1.803 -0.352188,-2.616241 0.79628,-1.90645c1.120407,0.692431 2.002762,-1.046399 2.002762,-3.946867c0,-4.786265 0.693466,-5.184562 9.025696,-5.184562c8.406677,0 12.812134,21.243223 6.595566,31.804155c-2.665634,4.528469 1.162827,15.116249 5.094177,14.088207c2.198715,-0.574997 3.465775,-0.513561 2.815704,0.136513c-0.65007,0.650032 0.2491,2.22834 1.998138,3.507206c1.749023,1.278938 3.823318,5.471825 4.609421,9.317421c1.646759,8.05547 13.74234,10.316067 25.381622,4.743595c6.645233,-3.181534 16.23642,-3.798534 14.463913,-0.930527c-0.641113,1.0373 -0.239044,2.458702 0.893417,3.1586c1.132477,0.699921 2.059036,4.7593 2.059036,9.020813c0,8.211296 -5.323807,12.21666 -10.009766,7.530678c-1.645905,-1.645897 -3.311096,-1.583199 -6.221451,0.234337c-2.185654,1.364998 -6.460953,2.481827 -9.500671,2.481827c-5.103317,0 -5.274277,0.252319 -2.231796,3.294807c3.042496,3.042503 2.998108,3.823196 -0.578903,10.191757c-2.130508,3.793266 -3.873718,10.569778 -3.873718,15.058846c0,5.653687 -0.718826,7.717796 -2.339066,6.716408c-1.58815,-0.981537 -1.782288,-0.544716 -0.604752,1.36055c2.33609,3.779808 3.110382,30.298409 0.995087,34.078224c-1.027359,1.83577 -0.584351,4.696854 1.133072,7.317917c2.41066,3.679138 2.408066,4.86676 -0.017609,8.184219c-2.44455,3.343018 -2.410965,4.705444 0.242554,9.8367c2.779526,5.375015 2.757767,6.50177 -0.222763,11.54747c-2.434784,4.121689 -2.679642,5.976501 -0.931641,7.056778c1.426758,0.881805 1.829895,0.5896 1.012131,-0.733536c-0.747513,-1.209503 -0.511261,-2.723083 0.524994,-3.363556c2.087662,-1.290237 0.901108,8.927811 -1.888824,16.265823c-1.148605,3.021149 -0.979004,4.866577 0.492294,5.35701c1.386765,0.462234 1.712418,2.868301 0.852112,6.295944c-0.912033,3.633942 -2.245514,5.035568 -3.865494,4.062973c-1.360245,-0.81662 -1.10556,0.232803 0.565872,2.332077c2.394882,3.007797 2.434647,3.452545 0.187393,2.098114c-2.202591,-1.327591 -2.591446,-0.723709 -1.708466,2.652908c0.630234,2.409897 0.310699,3.857147 -0.712021,3.225067c-3.279739,-2.027008 -9.923035,1.299423 -9.923035,4.968597c0,11.455292 9.919815,31.328613 12.598389,25.239563c1.226944,-2.789185 1.39418,-2.418152 0.656815,1.457184c-0.581375,3.055267 0.430893,7.226654 2.454865,10.116333c1.894318,2.704529 3.642654,6.291046 3.885223,7.970001c0.242615,1.679047 2.31488,4.303619 4.605042,5.832428c2.290207,1.528839 4.16394,4.915649 4.16394,7.526276c0,2.673126 1.770126,5.694061 4.052032,6.915283c2.228653,1.192688 4.065536,3.731964 4.081909,5.642792c0.016449,1.910828 1.34343,5.753571 2.948883,8.539337c8.68869,15.07663 17.281464,34.964813 17.281464,39.998352c0,3.158752 1.727875,9.132355 3.839645,13.274506c2.111786,4.142059 3.023453,8.035583 2.026016,8.652008c-0.997482,0.616455 -1.813629,5.473633 -1.813629,10.793793c0,5.320038 -0.634186,10.306946 -1.409271,11.082123c-0.775162,0.775116 -1.600082,2.522522 -1.833191,3.883118c-1.902603,11.105927 -3.036102,14.520508 -5.296036,15.954407c-1.43251,0.909027 -1.850662,1.666565 -0.92923,1.683624c0.921448,0.017059 -0.9832,2.689697 -4.232651,5.939087c-4.629379,4.629395 -5.759949,7.369659 -5.22406,12.662598c0.376099,3.715088 0.151611,5.609283 -0.498962,4.209473c-0.650558,-1.399811 -2.016693,-2.029724 -3.035812,-1.399963c-1.019135,0.629944 -1.866943,-0.048218 -1.884003,-1.506866c-0.018967,-1.61969 -0.610504,-1.863403 -1.519516,-0.626099c-0.81868,1.114288 -3.311935,3.191742 -5.540573,4.616425c-2.228577,1.424652 -8.5513,5.527405 -14.050446,9.117065c-5.499161,3.589691 -10.799835,6.279388 -11.779205,5.977051c-3.515915,-1.085358 -17.826416,3.819336 -16.658325,5.70929c1.317337,2.131531 0.286011,2.613525 -1.586121,0.741486zm-9.615417,-23.241852c0,-1.180084 0.869812,-1.608063 1.932831,-0.950928c3.1996,1.977417 12.363052,-1.143982 10.874023,-3.704102c-0.740952,-1.274017 0.502182,-0.697906 2.762527,1.280273c3.661606,3.204346 4.389572,3.259491 6.674408,0.5065c1.410568,-1.699707 3.454834,-3.09021 4.542892,-3.09021c5.006134,0 15.899216,-6.844391 14.926697,-9.378754c-0.631592,-1.645813 0.745483,-3.186676 3.455872,-3.866943c4.055206,-1.017853 7.639328,-5.344391 14.994888,-18.101135c3.838364,-6.656738 5.166077,-17.272339 2.164886,-17.308716c-1.642303,-0.019775 -1.810104,-0.565125 -0.467606,-1.519501c2.506424,-1.781799 2.537415,-4.527649 0.09465,-8.386017c-1.256424,-1.984589 -1.072922,-2.395264 0.606552,-1.3573c1.72998,1.069153 2.087234,-0.126373 1.268555,-4.245544c-0.626709,-3.153534 -1.696487,-10.064423 -2.377274,-15.357391c-0.680756,-5.292969 -1.908493,-9.623505 -2.728271,-9.623505c-0.819794,0 -2.067947,-2.886932 -2.773666,-6.415405c-0.705643,-3.528503 -3.554749,-9.393707 -6.331314,-13.033997c-2.776505,-3.640167 -5.048233,-7.935364 -5.048233,-9.544678c0,-3.541168 -4.908981,-7.968079 -6.770966,-6.106079c-0.73317,0.733215 -1.333099,-0.642273 -1.333099,-3.05661c0,-2.414337 -0.883118,-4.389648 -1.962402,-4.389648c-1.079361,0 -1.41806,-1.41861 -0.752701,-3.152496c1.1745,-3.060883 -5.942291,-11.827057 -7.962006,-9.807281c-0.538101,0.538086 -1.536453,-0.475861 -2.218491,-2.253265c-0.846573,-2.206116 -0.455627,-2.746826 1.231873,-1.703827c1.359634,0.840271 0.437515,-1.058746 -2.049194,-4.220093c-2.486649,-3.161255 -4.521271,-7.046234 -4.521271,-8.633179c0,-1.586945 -0.797775,-2.392273 -1.772949,-1.789612c-0.975113,0.602661 -2.334167,-2.30661 -3.020111,-6.464996c-0.685928,-4.158417 -2.62323,-10.17215 -4.305099,-13.363892c-1.681885,-3.191711 -3.057953,-7.5224 -3.057953,-9.623566c0,-2.226898 -1.478836,-3.887207 -3.545532,-3.980469c-1.950043,-0.087891 -2.457092,-0.602692 -1.126831,-1.143875c1.330307,-0.541138 1.859131,-2.442139 1.175247,-4.224411c-0.820419,-2.137878 -0.44487,-2.746902 1.103638,-1.789917c1.533432,0.947739 1.928833,0.360641 1.140518,-1.693695c-1.449097,-3.776276 -4.066086,-4.14328 -4.361877,-0.611679c-0.752151,8.980347 -1.417923,12.786804 -2.391983,13.675629c-2.192459,2.000443 -6.17569,10.126114 -6.193817,12.635147c-0.010193,1.407959 -2.260956,7.118561 -5.001648,12.690094c-2.740784,5.571564 -5.011688,11.176147 -5.04657,12.454712c-0.05838,2.141693 -9.545074,22.983429 -14.508926,31.875183c-2.220627,3.977905 -4.253464,12.014221 -4.508011,17.821472c-0.081863,1.868225 -0.802246,2.992981 -1.600754,2.499451c-1.979034,-1.223083 -4.522812,3.173431 -5.358185,9.260956c-0.379448,2.764893 -1.318077,5.500031 -2.085938,6.078064c-6.138283,4.620819 -10.992058,35.684784 -6.064079,38.809875c1.753044,1.111694 1.856956,1.69696 0.305122,1.717377c-3.864693,0.050964 -0.420937,17.519897 5.198296,26.369293c4.865707,7.662598 14.765495,18.234161 17.075493,18.234161c1.126114,0 3.677429,1.475128 5.66954,3.277954c5.737823,5.192657 24.048248,8.776276 24.048248,4.706573z" fill="#000000"/>
 </g>
</svg>